<?xml version="1.0" encoding="UTF-8" standalone="no"?>
<!-- Created with Inkscape (http://www.inkscape.org/) -->

<svg
   xmlns:dc="http://purl.org/dc/elements/1.1/"
   xmlns:cc="http://creativecommons.org/ns#"
   xmlns:rdf="http://www.w3.org/1999/02/22-rdf-syntax-ns#"
   xmlns:svg="http://www.w3.org/2000/svg"
   xmlns="http://www.w3.org/2000/svg"
   xmlns:sodipodi="http://sodipodi.sourceforge.net/DTD/sodipodi-0.dtd"
   xmlns:inkscape="http://www.inkscape.org/namespaces/inkscape"
   width="173.16258"
   height="65.1875"
   id="svg2"
   version="1.1"
   inkscape:version="0.48.4 r9939"
   sodipodi:docname="batman-binnen.svg">
  <sodipodi:namedview
     id="base"
     pagecolor="#ffffff"
     bordercolor="#666666"
     borderopacity="1.0"
     inkscape:pageopacity="0.0"
     inkscape:pageshadow="2"
     inkscape:zoom="4.5982288"
     inkscape:cx="84.30326"
     inkscape:cy="32.342722"
     inkscape:document-units="mm"
     inkscape:current-layer="layer1"
     showgrid="false"
     inkscape:window-width="1317"
     inkscape:window-height="744"
     inkscape:window-x="49"
     inkscape:window-y="24"
     inkscape:window-maximized="1"
     units="mm"
     fit-margin-top="0"
     fit-margin-left="0"
     fit-margin-right="0"
     fit-margin-bottom="0" />
  <defs
     id="defs4" />
  <metadata
     id="metadata7">
    <rdf:RDF>
      <cc:Work
         rdf:about="">
        <dc:format>image/svg+xml</dc:format>
        <dc:type
           rdf:resource="http://purl.org/dc/dcmitype/StillImage" />
        <dc:title></dc:title>
      </cc:Work>
    </rdf:RDF>
  </metadata>
  <g
     inkscape:label="Layer 1"
     inkscape:groupmode="layer"
     id="layer1"
     transform="translate(-1170.2124,-571.96875)">
    <path
       style="fill:none;stroke:#000000;stroke-width:1"
       d="m 1248,573.78125 c -1.644,5.91281 -0.8956,13.04949 -4.4688,18.1875 -10.4316,6.28128 -26.7355,2.58087 -31.875,-8.75 -0.8634,-2.38943 0.5124,-6.51796 0.2188,-7.53125 -15.5741,4.00771 -33.7961,10.12492 -40.2812,26.28125 -4.0931,12.71726 6.6899,23.88946 17.0312,29.375 3.6119,1.89144 7.2715,3.77264 11.1562,4.90625 -3.2702,-4.9798 -1.1828,-12.26703 4.8126,-13.875 7.3711,-3.39872 15.7594,0.61583 21.75,4 6.002,-7.85396 17.9722,-4.66892 23.625,1.90625 2.7606,2.19264 5.1223,6.95443 7.3124,7.96875 5.2051,-8.31089 14.7578,-17.41099 25.375,-13.625 2.8679,0.61812 4.3653,5.84244 7.1563,2.59375 7.2737,-4.98312 20.0786,-6.59319 25.1563,2.28125 0.9282,2.90843 0.3773,6.09943 -1.0313,8.75 12.8427,-4.5525 28.3478,-13.39415 28.9375,-28.65625 -0.5534,-14.92184 -16.0108,-23.57928 -28.5,-28.25 -4.2111,-1.37691 -9.0949,-3.10709 -13.0625,-3.59375 4.0713,8.03124 -3.9424,15.67071 -11.1875,17.71875 -6.6999,2.40324 -15.7807,2.46465 -21,-2.84375 -1.6077,-5.47877 -2.3089,-11.27419 -3.375,-16.90625 -2.4071,5.93225 -9.019,4.21319 -14.1875,4 -1.4799,-1.0149 -2.4535,-2.93147 -3.5625,-3.9375 z"
       id="path3825"
       inkscape:connector-curvature="0" />
  </g>
</svg>
