<?xml version="1.0" encoding="UTF-8" standalone="no"?>
<!-- Created with Inkscape (http://www.inkscape.org/) -->

<svg
   xmlns:dc="http://purl.org/dc/elements/1.1/"
   xmlns:cc="http://creativecommons.org/ns#"
   xmlns:rdf="http://www.w3.org/1999/02/22-rdf-syntax-ns#"
   xmlns:svg="http://www.w3.org/2000/svg"
   xmlns="http://www.w3.org/2000/svg"
   xmlns:sodipodi="http://sodipodi.sourceforge.net/DTD/sodipodi-0.dtd"
   xmlns:inkscape="http://www.inkscape.org/namespaces/inkscape"
   width="177.15234"
   height="73.253242"
   id="svg2"
   version="1.1"
   inkscape:version="0.48.4 r9939"
   sodipodi:docname="batman.svg">
  <sodipodi:namedview
     id="base"
     pagecolor="#ffffff"
     bordercolor="#666666"
     borderopacity="1.0"
     inkscape:pageopacity="0.0"
     inkscape:pageshadow="2"
     inkscape:zoom="4.5982288"
     inkscape:cx="86.283048"
     inkscape:cy="36.064715"
     inkscape:document-units="mm"
     inkscape:current-layer="layer1"
     showgrid="false"
     inkscape:window-width="1317"
     inkscape:window-height="744"
     inkscape:window-x="49"
     inkscape:window-y="24"
     inkscape:window-maximized="1"
     units="mm"
     fit-margin-top="0"
     fit-margin-left="0"
     fit-margin-right="0"
     fit-margin-bottom="0" />
  <defs
     id="defs4" />
  <metadata
     id="metadata7">
    <rdf:RDF>
      <cc:Work
         rdf:about="">
        <dc:format>image/svg+xml</dc:format>
        <dc:type
           rdf:resource="http://purl.org/dc/dcmitype/StillImage" />
        <dc:title></dc:title>
      </cc:Work>
    </rdf:RDF>
  </metadata>
  <g
     inkscape:label="Layer 1"
     inkscape:groupmode="layer"
     id="layer1"
     transform="translate(-1168.2326,-567.625)">
    <path
       style="fill:none;stroke:#000000;stroke-width:1"
       d="m 1258.9318,637.38897 c 1.1077,-1.64906 2.1882,-3.18864 2.4012,-3.42128 0.213,-0.23265 0.7684,-0.89372 1.2343,-1.46905 1.8599,-2.29667 4.7224,-4.8788 6.9368,-6.25736 3.0641,-1.90744 5.533,-2.57781 8.9421,-2.42801 2.0984,0.0922 2.4702,0.17099 3.686,0.78099 1.2749,0.6397 3.2002,2.32469 4.5337,3.96787 l 0.5632,0.69406 2.0698,-1.35701 c 7.8568,-5.151 14.9028,-6.15497 20.6002,-2.93524 1.265,0.7149 2.4721,1.86968 3.0357,2.90414 0.6531,1.19873 0.6301,4.13491 -0.045,5.78618 -0.7369,1.80119 -1.7034,3.57302 -2.626,4.81373 l -0.8438,1.13491 0.8221,-0.15175 c 1.0671,-0.19698 6.6846,-2.03795 7.9166,-2.59447 0.5241,-0.23676 1.8194,-0.81062 2.8783,-1.27525 1.0588,-0.46462 2.2501,-1.0255 2.6471,-1.2464 0.3971,-0.22089 1.2938,-0.71601 1.9926,-1.10025 11.7504,-6.46057 18.4841,-14.93827 19.1366,-24.09289 0.2884,-4.04623 -0.2475,-6.75941 -2.1401,-10.83594 -0.5683,-1.22411 -2.2409,-3.78995 -3.3973,-5.21157 -4.8984,-6.02181 -11.5445,-10.47961 -21.9643,-14.73221 -2.9255,-1.19397 -5.7697,-2.12831 -10.9064,-3.58276 -1.5583,-0.44124 -5.2423,-1.28186 -7.9674,-1.81803 -0.8878,-0.17467 -1.7846,-0.38256 -1.993,-0.46199 -0.2083,-0.0794 0.062,0.25949 0.6013,0.75314 1.3053,1.19539 2.448,2.94472 2.9506,4.51685 0.5896,1.84455 0.4365,4.41406 -0.363,6.09324 -0.8748,1.83721 -3.8082,4.66133 -6.1706,5.94079 -7.1134,3.85245 -14.5653,4.27029 -20.8641,1.16989 -1.4643,-0.72077 -1.5764,-0.82552 -1.8234,-1.70297 -0.4306,-1.52991 -1.7461,-8.20204 -2.5952,-13.16228 -0.5018,-2.9315 -1.0328,-5.89285 -1.1806,-6.58369 -0.087,-0.40699 -0.5235,0.0509 -2.8079,2.9457 l -2.7049,3.42758 -4.3945,0.0569 c -2.4169,0.0313 -4.5218,-0.0161 -4.6775,-0.10521 -0.3089,-0.17688 -1.1958,-1.26758 -3.8615,-4.7488 l -1.7399,-2.27222 -0.1176,0.69417 c -0.065,0.38179 -0.3611,2.16176 -0.6588,3.95547 -0.9771,5.88654 -2.4242,13.43774 -2.9435,15.35969 -0.3837,1.41987 -0.8532,1.8231 -3.1487,2.70408 -3.4971,1.34216 -8.3522,1.90158 -11.1146,1.28066 -2.3675,-0.53215 -2.9697,-0.68932 -4.1704,-1.0884 -5.1905,-1.72511 -9.4864,-5.09929 -10.9204,-8.57732 -0.1958,-0.47474 -0.3018,-1.48491 -0.2983,-2.84279 0.01,-1.97987 0.052,-2.20278 0.7727,-3.71168 0.5244,-1.09704 1.1785,-2.02024 2.066,-2.91582 0.7143,-0.72078 1.129,-1.24561 0.9215,-1.16627 -0.2074,0.0793 -1.1396,0.28675 -2.0714,0.46092 -1.8352,0.34304 -5.6891,1.20433 -6.8827,1.53818 -7.8118,2.18493 -11.9834,3.68129 -17.1538,6.15308 -9.8916,4.7289 -16.7193,10.70916 -20.0124,17.52845 -1.5222,3.15211 -2.016,4.69768 -2.252,7.04862 -0.5716,5.69469 1.1302,11.37818 4.8827,16.30652 2.4574,3.22741 6.4638,6.80741 10.6198,9.48939 3.2062,2.06908 5.0828,3.06586 10.2999,5.47084 1.4648,0.67526 8.5827,3.02953 9.1594,3.02953 0.4118,0 0.3659,-0.12285 -0.4934,-1.31921 -2.126,-2.96005 -3.2308,-5.95616 -3.0449,-8.25734 0.1929,-2.38725 1.4541,-3.9672 4.2751,-5.35563 2.0293,-0.99879 4.0443,-1.47243 6.2609,-1.47171 4.515,10e-4 8.4217,1.36508 13.6366,4.75985 l 2.1005,1.36736 0.7515,-0.91085 c 1.4277,-1.73049 2.9384,-3.02877 4.3568,-3.74404 1.3148,-0.66303 1.6043,-0.72453 3.7897,-0.80493 1.9149,-0.0704 2.7068,-0.002 4.1518,0.35759 4.7754,1.18919 9.406,5.04787 14.5983,12.16475 0.9476,1.29888 1.7229,2.42922 1.7229,2.51186 0,0.13271 0.8999,1.53882 0.9872,1.54249 0.019,8.4e-4 0.9405,-1.34779 2.0482,-2.99686 z"
       id="path3024"
       inkscape:connector-curvature="0" />
  </g>
</svg>
