  0
SECTION
  2
HEADER
  9
$ACADVER
  1
AC1009
  9
$EXTMIN
 10
0.0
 20
0.0
 30
0.0
  9
$EXTMAX
 10
1000.0
 20
1000.0
 30
0.0
  9
$FILLMODE
 70
 0
  9
$SPLFRAME
 70
 1
  0
ENDSEC
  0
SECTION
  2
TABLES
  0
TABLE
  2
LAYER
 70
1
  0
LAYER
  2
0
 70
     0
 62
     7
  6
CONTINUOUS
  0
ENDTAB
  0
ENDSEC
  0
SECTION
  2
ENTITIES
  0
LINE
  8
0
 62
     0
 10
1.00776
 20
0.0387369
 30
0.0
 11
1.02479
 21
0.0636936
 31
0.0
  0
LINE
  8
0
 62
     0
 10
1.02479
 20
0.0636936
 30
0.0
 11
1.03445
 21
0.0767686
 31
0.0
  0
LINE
  8
0
 62
     0
 10
1.03445
 20
0.0767686
 30
0.0
 11
1.04818
 21
0.0930989
 31
0.0
  0
LINE
  8
0
 62
     0
 10
1.04818
 20
0.0930989
 30
0.0
 11
1.08523
 21
0.131673
 31
0.0
  0
LINE
  8
0
 62
     0
 10
1.08523
 20
0.131673
 30
0.0
 11
1.12522
 21
0.162597
 31
0.0
  0
LINE
  8
0
 62
     0
 10
1.12522
 20
0.162597
 30
0.0
 11
1.17345
 21
0.184679
 31
0.0
  0
LINE
  8
0
 62
     0
 10
1.17345
 20
0.184679
 30
0.0
 11
1.22461
 21
0.189615
 31
0.0
  0
LINE
  8
0
 62
     0
 10
1.22461
 20
0.189615
 30
0.0
 11
1.24875
 21
0.187446
 31
0.0
  0
LINE
  8
0
 62
     0
 10
1.24875
 20
0.187446
 30
0.0
 11
1.26557
 21
0.180935
 31
0.0
  0
LINE
  8
0
 62
     0
 10
1.26557
 20
0.180935
 30
0.0
 11
1.29047
 21
0.163086
 31
0.0
  0
LINE
  8
0
 62
     0
 10
1.29047
 20
0.163086
 30
0.0
 11
1.31592
 21
0.136827
 31
0.0
  0
LINE
  8
0
 62
     0
 10
1.31592
 20
0.136827
 30
0.0
 11
1.32216
 21
0.129123
 31
0.0
  0
LINE
  8
0
 62
     0
 10
1.32216
 20
0.129123
 30
0.0
 11
1.34516
 21
0.144206
 31
0.0
  0
LINE
  8
0
 62
     0
 10
1.34516
 20
0.144206
 30
0.0
 11
1.46858
 21
0.195421
 31
0.0
  0
LINE
  8
0
 62
     0
 10
1.46858
 20
0.195421
 30
0.0
 11
1.57406
 21
0.176813
 31
0.0
  0
LINE
  8
0
 62
     0
 10
1.57406
 20
0.176813
 30
0.0
 11
1.59386
 21
0.162056
 31
0.0
  0
LINE
  8
0
 62
     0
 10
1.59386
 20
0.162056
 30
0.0
 11
1.60781
 21
0.144531
 31
0.0
  0
LINE
  8
0
 62
     0
 10
1.60781
 20
0.144531
 30
0.0
 11
1.61307
 21
0.114312
 31
0.0
  0
LINE
  8
0
 62
     0
 10
1.61307
 20
0.114312
 30
0.0
 11
1.60732
 21
0.0802408
 31
0.0
  0
LINE
  8
0
 62
     0
 10
1.60732
 20
0.0802408
 30
0.0
 11
1.57813
 21
0.0267469
 31
0.0
  0
LINE
  8
0
 62
     0
 10
1.57813
 20
0.0267469
 30
0.0
 11
1.56874
 21
0.0141601
 31
0.0
  0
LINE
  8
0
 62
     0
 10
1.56874
 20
0.0141601
 30
0.0
 11
1.5779
 21
0.0158419
 31
0.0
  0
LINE
  8
0
 62
     0
 10
1.5779
 20
0.0158419
 30
0.0
 11
1.59467
 21
0.0203993
 31
0.0
  0
LINE
  8
0
 62
     0
 10
1.59467
 20
0.0203993
 30
0.0
 11
1.62115
 21
0.0287543
 31
0.0
  0
LINE
  8
0
 62
     0
 10
1.62115
 20
0.0287543
 30
0.0
 11
1.648
 21
0.0378689
 31
0.0
  0
LINE
  8
0
 62
     0
 10
1.648
 20
0.0378689
 30
0.0
 11
1.66585
 21
0.0446506
 31
0.0
  0
LINE
  8
0
 62
     0
 10
1.66585
 20
0.0446506
 30
0.0
 11
1.67958
 21
0.0508356
 31
0.0
  0
LINE
  8
0
 62
     0
 10
1.67958
 20
0.0508356
 30
0.0
 11
1.69781
 21
0.058865
 31
0.0
  0
LINE
  8
0
 62
     0
 10
1.69781
 20
0.058865
 30
0.0
 11
1.71528
 21
0.0668403
 31
0.0
  0
LINE
  8
0
 62
     0
 10
1.71528
 20
0.0668403
 30
0.0
 11
1.72721
 21
0.0726997
 31
0.0
  0
LINE
  8
0
 62
     0
 10
1.72721
 20
0.0726997
 30
0.0
 11
1.7494
 21
0.0849067
 31
0.0
  0
LINE
  8
0
 62
     0
 10
1.7494
 20
0.0849067
 30
0.0
 11
1.83664
 21
0.14274
 31
0.0
  0
LINE
  8
0
 62
     0
 10
1.83664
 20
0.14274
 30
0.0
 11
1.90192
 21
0.207519
 31
0.0
  0
LINE
  8
0
 62
     0
 10
1.90192
 20
0.207519
 30
0.0
 11
1.94407
 21
0.277994
 31
0.0
  0
LINE
  8
0
 62
     0
 10
1.94407
 20
0.277994
 30
0.0
 11
1.96203
 21
0.352593
 31
0.0
  0
LINE
  8
0
 62
     0
 10
1.96203
 20
0.352593
 30
0.0
 11
1.95919
 21
0.412706
 31
0.0
  0
LINE
  8
0
 62
     0
 10
1.95919
 20
0.412706
 30
0.0
 11
1.93821
 21
0.473036
 31
0.0
  0
LINE
  8
0
 62
     0
 10
1.93821
 20
0.473036
 30
0.0
 11
1.92176
 21
0.501193
 31
0.0
  0
LINE
  8
0
 62
     0
 10
1.92176
 20
0.501193
 30
0.0
 11
1.9005
 21
0.530925
 31
0.0
  0
LINE
  8
0
 62
     0
 10
1.9005
 20
0.530925
 30
0.0
 11
1.80143
 21
0.620171
 31
0.0
  0
LINE
  8
0
 62
     0
 10
1.80143
 20
0.620171
 30
0.0
 11
1.65642
 21
0.694607
 31
0.0
  0
LINE
  8
0
 62
     0
 10
1.65642
 20
0.694607
 30
0.0
 11
1.60503
 21
0.713488
 31
0.0
  0
LINE
  8
0
 62
     0
 10
1.60503
 20
0.713488
 30
0.0
 11
1.53526
 21
0.734429
 31
0.0
  0
LINE
  8
0
 62
     0
 10
1.53526
 20
0.734429
 30
0.0
 11
1.49582
 21
0.74414
 31
0.0
  0
LINE
  8
0
 62
     0
 10
1.49582
 20
0.74414
 30
0.0
 11
1.44672
 21
0.754611
 31
0.0
  0
LINE
  8
0
 62
     0
 10
1.44672
 20
0.754611
 30
0.0
 11
1.42458
 21
0.759765
 31
0.0
  0
LINE
  8
0
 62
     0
 10
1.42458
 20
0.759765
 30
0.0
 11
1.42481
 21
0.757975
 31
0.0
  0
LINE
  8
0
 62
     0
 10
1.42481
 20
0.757975
 30
0.0
 11
1.43126
 21
0.751357
 31
0.0
  0
LINE
  8
0
 62
     0
 10
1.43126
 20
0.751357
 30
0.0
 11
1.45096
 21
0.727864
 31
0.0
  0
LINE
  8
0
 62
     0
 10
1.45096
 20
0.727864
 30
0.0
 11
1.46403
 21
0.701172
 31
0.0
  0
LINE
  8
0
 62
     0
 10
1.46403
 20
0.701172
 30
0.0
 11
1.46778
 21
0.666667
 31
0.0
  0
LINE
  8
0
 62
     0
 10
1.46778
 20
0.666667
 30
0.0
 11
1.46001
 21
0.633518
 31
0.0
  0
LINE
  8
0
 62
     0
 10
1.46001
 20
0.633518
 30
0.0
 11
1.44889
 21
0.61659
 31
0.0
  0
LINE
  8
0
 62
     0
 10
1.44889
 20
0.61659
 30
0.0
 11
1.43192
 21
0.598199
 31
0.0
  0
LINE
  8
0
 62
     0
 10
1.43192
 20
0.598199
 30
0.0
 11
1.41183
 21
0.580946
 31
0.0
  0
LINE
  8
0
 62
     0
 10
1.41183
 20
0.580946
 30
0.0
 11
1.39144
 21
0.567492
 31
0.0
  0
LINE
  8
0
 62
     0
 10
1.39144
 20
0.567492
 30
0.0
 11
1.27208
 21
0.53201
 31
0.0
  0
LINE
  8
0
 62
     0
 10
1.27208
 20
0.53201
 30
0.0
 11
1.15961
 21
0.554471
 31
0.0
  0
LINE
  8
0
 62
     0
 10
1.15961
 20
0.554471
 30
0.0
 11
1.14437
 21
0.563314
 31
0.0
  0
LINE
  8
0
 62
     0
 10
1.14437
 20
0.563314
 30
0.0
 11
1.13938
 21
0.573406
 31
0.0
  0
LINE
  8
0
 62
     0
 10
1.13938
 20
0.573406
 30
0.0
 11
1.13417
 21
0.595703
 31
0.0
  0
LINE
  8
0
 62
     0
 10
1.13417
 20
0.595703
 30
0.0
 11
1.12668
 21
0.632269
 31
0.0
  0
LINE
  8
0
 62
     0
 10
1.12668
 20
0.632269
 30
0.0
 11
1.11833
 21
0.675999
 31
0.0
  0
LINE
  8
0
 62
     0
 10
1.11833
 20
0.675999
 30
0.0
 11
1.11051
 21
0.719672
 31
0.0
  0
LINE
  8
0
 62
     0
 10
1.11051
 20
0.719672
 30
0.0
 11
1.10248
 21
0.765625
 31
0.0
  0
LINE
  8
0
 62
     0
 10
1.10248
 20
0.765625
 30
0.0
 11
1.09744
 21
0.792806
 31
0.0
  0
LINE
  8
0
 62
     0
 10
1.09744
 20
0.792806
 30
0.0
 11
1.0957
 21
0.794162
 31
0.0
  0
LINE
  8
0
 62
     0
 10
1.0957
 20
0.794162
 30
0.0
 11
1.09093
 21
0.790201
 31
0.0
  0
LINE
  8
0
 62
     0
 10
1.09093
 20
0.790201
 30
0.0
 11
1.0816
 21
0.77946
 31
0.0
  0
LINE
  8
0
 62
     0
 10
1.0816
 20
0.77946
 30
0.0
 11
1.06619
 21
0.760092
 31
0.0
  0
LINE
  8
0
 62
     0
 10
1.06619
 20
0.760092
 30
0.0
 11
1.03613
 21
0.722006
 31
0.0
  0
LINE
  8
0
 62
     0
 10
1.03613
 20
0.722006
 30
0.0
 11
0.987358
 21
0.721354
 31
0.0
  0
LINE
  8
0
 62
     0
 10
0.987358
 20
0.721354
 30
0.0
 11
0.951932
 21
0.721463
 31
0.0
  0
LINE
  8
0
 62
     0
 10
0.951932
 20
0.721463
 30
0.0
 11
0.935385
 21
0.722547
 31
0.0
  0
LINE
  8
0
 62
     0
 10
0.935385
 20
0.722547
 30
0.0
 11
0.931369
 21
0.726183
 31
0.0
  0
LINE
  8
0
 62
     0
 10
0.931369
 20
0.726183
 30
0.0
 11
0.923719
 21
0.735189
 31
0.0
  0
LINE
  8
0
 62
     0
 10
0.923719
 20
0.735189
 30
0.0
 11
0.911133
 21
0.751031
 31
0.0
  0
LINE
  8
0
 62
     0
 10
0.911133
 20
0.751031
 30
0.0
 11
0.892469
 21
0.775282
 31
0.0
  0
LINE
  8
0
 62
     0
 10
0.892469
 20
0.775282
 30
0.0
 11
0.873101
 21
0.800564
 31
0.0
  0
LINE
  8
0
 62
     0
 10
0.873101
 20
0.800564
 30
0.0
 11
0.871799
 21
0.792806
 31
0.0
  0
LINE
  8
0
 62
     0
 10
0.871799
 20
0.792806
 30
0.0
 11
0.869086
 21
0.776747
 31
0.0
  0
LINE
  8
0
 62
     0
 10
0.869086
 20
0.776747
 30
0.0
 11
0.864475
 21
0.748861
 31
0.0
  0
LINE
  8
0
 62
     0
 10
0.864475
 20
0.748861
 30
0.0
 11
0.855578
 21
0.697646
 31
0.0
  0
LINE
  8
0
 62
     0
 10
0.855578
 20
0.697646
 30
0.0
 11
0.846192
 21
0.647026
 31
0.0
  0
LINE
  8
0
 62
     0
 10
0.846192
 20
0.647026
 30
0.0
 11
0.837782
 21
0.60471
 31
0.0
  0
LINE
  8
0
 62
     0
 10
0.837782
 20
0.60471
 30
0.0
 11
0.831814
 21
0.578233
 31
0.0
  0
LINE
  8
0
 62
     0
 10
0.831814
 20
0.578233
 30
0.0
 11
0.822265
 21
0.560981
 31
0.0
  0
LINE
  8
0
 62
     0
 10
0.822265
 20
0.560981
 30
0.0
 11
0.796821
 21
0.548178
 31
0.0
  0
LINE
  8
0
 62
     0
 10
0.796821
 20
0.548178
 30
0.0
 11
0.731933
 21
0.532878
 31
0.0
  0
LINE
  8
0
 62
     0
 10
0.731933
 20
0.532878
 30
0.0
 11
0.673286
 21
0.533963
 31
0.0
  0
LINE
  8
0
 62
     0
 10
0.673286
 20
0.533963
 30
0.0
 11
0.645236
 21
0.540582
 31
0.0
  0
LINE
  8
0
 62
     0
 10
0.645236
 20
0.540582
 30
0.0
 11
0.626953
 21
0.546007
 31
0.0
  0
LINE
  8
0
 62
     0
 10
0.626953
 20
0.546007
 30
0.0
 11
0.585883
 21
0.563585
 31
0.0
  0
LINE
  8
0
 62
     0
 10
0.585883
 20
0.563585
 30
0.0
 11
0.550618
 21
0.586426
 31
0.0
  0
LINE
  8
0
 62
     0
 10
0.550618
 20
0.586426
 30
0.0
 11
0.523167
 21
0.612847
 31
0.0
  0
LINE
  8
0
 62
     0
 10
0.523167
 20
0.612847
 30
0.0
 11
0.505642
 21
0.641331
 31
0.0
  0
LINE
  8
0
 62
     0
 10
0.505642
 20
0.641331
 30
0.0
 11
0.502333
 21
0.672906
 31
0.0
  0
LINE
  8
0
 62
     0
 10
0.502333
 20
0.672906
 30
0.0
 11
0.503635
 21
0.695529
 31
0.0
  0
LINE
  8
0
 62
     0
 10
0.503635
 20
0.695529
 30
0.0
 11
0.510906
 21
0.714139
 31
0.0
  0
LINE
  8
0
 62
     0
 10
0.510906
 20
0.714139
 30
0.0
 11
0.533854
 21
0.746582
 31
0.0
  0
LINE
  8
0
 62
     0
 10
0.533854
 20
0.746582
 30
0.0
 11
0.542806
 21
0.756401
 31
0.0
  0
LINE
  8
0
 62
     0
 10
0.542806
 20
0.756401
 30
0.0
 11
0.544108
 21
0.759494
 31
0.0
  0
LINE
  8
0
 62
     0
 10
0.544108
 20
0.759494
 30
0.0
 11
0.53559
 21
0.757378
 31
0.0
  0
LINE
  8
0
 62
     0
 10
0.53559
 20
0.757378
 30
0.0
 11
0.521104
 21
0.754394
 31
0.0
  0
LINE
  8
0
 62
     0
 10
0.521104
 20
0.754394
 30
0.0
 11
0.480143
 21
0.745822
 31
0.0
  0
LINE
  8
0
 62
     0
 10
0.480143
 20
0.745822
 30
0.0
 11
0.444607
 21
0.737304
 31
0.0
  0
LINE
  8
0
 62
     0
 10
0.444607
 20
0.737304
 30
0.0
 11
0.386285
 21
0.720269
 31
0.0
  0
LINE
  8
0
 62
     0
 10
0.386285
 20
0.720269
 30
0.0
 11
0.338271
 21
0.704372
 31
0.0
  0
LINE
  8
0
 62
     0
 10
0.338271
 20
0.704372
 30
0.0
 11
0.29579
 21
0.687825
 31
0.0
  0
LINE
  8
0
 62
     0
 10
0.29579
 20
0.687825
 30
0.0
 11
0.254015
 21
0.668946
 31
0.0
  0
LINE
  8
0
 62
     0
 10
0.254015
 20
0.668946
 30
0.0
 11
0.115289
 21
0.580294
 31
0.0
  0
LINE
  8
0
 62
     0
 10
0.115289
 20
0.580294
 30
0.0
 11
0.0316297
 21
0.474175
 31
0.0
  0
LINE
  8
0
 62
     0
 10
0.0316297
 20
0.474175
 30
0.0
 11
0.0137804
 21
0.431694
 31
0.0
  0
LINE
  8
0
 62
     0
 10
0.0137804
 20
0.431694
 30
0.0
 11
0.00661892
 21
0.395888
 31
0.0
  0
LINE
  8
0
 62
     0
 10
0.00661892
 20
0.395888
 30
0.0
 11
0.0157335
 21
0.302083
 31
0.0
  0
LINE
  8
0
 62
     0
 10
0.0157335
 20
0.302083
 30
0.0
 11
0.0608724
 21
0.214681
 31
0.0
  0
LINE
  8
0
 62
     0
 10
0.0608724
 20
0.214681
 30
0.0
 11
0.112793
 21
0.159722
 31
0.0
  0
LINE
  8
0
 62
     0
 10
0.112793
 20
0.159722
 30
0.0
 11
0.178874
 21
0.109267
 31
0.0
  0
LINE
  8
0
 62
     0
 10
0.178874
 20
0.109267
 30
0.0
 11
0.203614
 21
0.0938585
 31
0.0
  0
LINE
  8
0
 62
     0
 10
0.203614
 20
0.0938585
 30
0.0
 11
0.227701
 21
0.0802951
 31
0.0
  0
LINE
  8
0
 62
     0
 10
0.227701
 20
0.0802951
 30
0.0
 11
0.255968
 21
0.0660265
 31
0.0
  0
LINE
  8
0
 62
     0
 10
0.255968
 20
0.0660265
 30
0.0
 11
0.293349
 21
0.0484483
 31
0.0
  0
LINE
  8
0
 62
     0
 10
0.293349
 20
0.0484483
 30
0.0
 11
0.315158
 21
0.040039
 31
0.0
  0
LINE
  8
0
 62
     0
 10
0.315158
 20
0.040039
 30
0.0
 11
0.347874
 21
0.0288628
 31
0.0
  0
LINE
  8
0
 62
     0
 10
0.347874
 20
0.0288628
 30
0.0
 11
0.378743
 21
0.0190429
 31
0.0
  0
LINE
  8
0
 62
     0
 10
0.378743
 20
0.0190429
 30
0.0
 11
0.395074
 21
0.0148112
 31
0.0
  0
LINE
  8
0
 62
     0
 10
0.395074
 20
0.0148112
 30
0.0
 11
0.397624
 21
0.0171983
 31
0.0
  0
LINE
  8
0
 62
     0
 10
0.397624
 20
0.0171983
 30
0.0
 11
0.389594
 21
0.0294596
 31
0.0
  0
LINE
  8
0
 62
     0
 10
0.389594
 20
0.0294596
 30
0.0
 11
0.363064
 21
0.078125
 31
0.0
  0
LINE
  8
0
 62
     0
 10
0.363064
 20
0.078125
 30
0.0
 11
0.355794
 21
0.121202
 31
0.0
  0
LINE
  8
0
 62
     0
 10
0.355794
 20
0.121202
 30
0.0
 11
0.368544
 21
0.155111
 31
0.0
  0
LINE
  8
0
 62
     0
 10
0.368544
 20
0.155111
 30
0.0
 11
0.403267
 21
0.180718
 31
0.0
  0
LINE
  8
0
 62
     0
 10
0.403267
 20
0.180718
 30
0.0
 11
0.472819
 21
0.197049
 31
0.0
  0
LINE
  8
0
 62
     0
 10
0.472819
 20
0.197049
 30
0.0
 11
0.509494
 21
0.194119
 31
0.0
  0
LINE
  8
0
 62
     0
 10
0.509494
 20
0.194119
 30
0.0
 11
0.545628
 21
0.184787
 31
0.0
  0
LINE
  8
0
 62
     0
 10
0.545628
 20
0.184787
 30
0.0
 11
0.583279
 21
0.168349
 31
0.0
  0
LINE
  8
0
 62
     0
 10
0.583279
 20
0.168349
 30
0.0
 11
0.624349
 21
0.144151
 31
0.0
  0
LINE
  8
0
 62
     0
 10
0.624349
 20
0.144151
 30
0.0
 11
0.647678
 21
0.128961
 31
0.0
  0
LINE
  8
0
 62
     0
 10
0.647678
 20
0.128961
 30
0.0
 11
0.656033
 21
0.139106
 31
0.0
  0
LINE
  8
0
 62
     0
 10
0.656033
 20
0.139106
 30
0.0
 11
0.704482
 21
0.180718
 31
0.0
  0
LINE
  8
0
 62
     0
 10
0.704482
 20
0.180718
 30
0.0
 11
0.721843
 21
0.187608
 31
0.0
  0
LINE
  8
0
 62
     0
 10
0.721843
 20
0.187608
 30
0.0
 11
0.746582
 21
0.189615
 31
0.0
  0
LINE
  8
0
 62
     0
 10
0.746582
 20
0.189615
 30
0.0
 11
0.771593
 21
0.189453
 31
0.0
  0
LINE
  8
0
 62
     0
 10
0.771593
 20
0.189453
 30
0.0
 11
0.792697
 21
0.185656
 31
0.0
  0
LINE
  8
0
 62
     0
 10
0.792697
 20
0.185656
 30
0.0
 11
0.832303
 21
0.170139
 31
0.0
  0
LINE
  8
0
 62
     0
 10
0.832303
 20
0.170139
 30
0.0
 11
0.872017
 21
0.142794
 31
0.0
  0
LINE
  8
0
 62
     0
 10
0.872017
 20
0.142794
 30
0.0
 11
0.912651
 21
0.103136
 31
0.0
  0
LINE
  8
0
 62
     0
 10
0.912651
 20
0.103136
 30
0.0
 11
0.954915
 21
0.05051
 31
0.0
  0
LINE
  8
0
 62
     0
 10
0.954915
 20
0.05051
 30
0.0
 11
0.968425
 21
0.0315213
 31
0.0
  0
LINE
  8
0
 62
     0
 10
0.968425
 20
0.0315213
 30
0.0
 11
0.974067
 21
0.0225694
 31
0.0
  0
LINE
  8
0
 62
     0
 10
0.974067
 20
0.0225694
 30
0.0
 11
0.979167
 21
0.0135091
 31
0.0
  0
LINE
  8
0
 62
     0
 10
0.979167
 20
0.0135091
 30
0.0
 11
0.985026
 21
0.0054796
 31
0.0
  0
LINE
  8
0
 62
     0
 10
0.985026
 20
0.0054796
 30
0.0
 11
0.991808
 21
0.0152453
 31
0.0
  0
LINE
  8
0
 62
     0
 10
0.991808
 20
0.0152453
 30
0.0
 11
1.00776
 21
0.0387369
 31
0.0
  0
ENDSEC
  0
EOF
