  0
SECTION
  2
HEADER
  9
$ACADVER
  1
AC1009
  9
$EXTMIN
 10
0.0
 20
0.0
 30
0.0
  9
$EXTMAX
 10
1000.0
 20
1000.0
 30
0.0
  9
$FILLMODE
 70
 0
  9
$SPLFRAME
 70
 1
  0
ENDSEC
  0
SECTION
  2
TABLES
  0
TABLE
  2
LAYER
 70
1
  0
LAYER
  2
0
 70
     0
 62
     7
  6
CONTINUOUS
  0
ENDTAB
  0
ENDSEC
  0
SECTION
  2
ENTITIES
  0
LINE
  8
0
 62
     0
 10
0.864312
 20
0.704156
 30
0.0
 11
0.854383
 21
0.65294
 31
0.0
  0
LINE
  8
0
 62
     0
 10
0.854383
 20
0.65294
 30
0.0
 11
0.847493
 21
0.599881
 31
0.0
  0
LINE
  8
0
 62
     0
 10
0.847493
 20
0.599881
 30
0.0
 11
0.836535
 21
0.548503
 31
0.0
  0
LINE
  8
0
 62
     0
 10
0.836535
 20
0.548503
 30
0.0
 11
0.814669
 21
0.502061
 31
0.0
  0
LINE
  8
0
 62
     0
 10
0.814669
 20
0.502061
 30
0.0
 11
0.718425
 21
0.470161
 31
0.0
  0
LINE
  8
0
 62
     0
 10
0.718425
 20
0.470161
 30
0.0
 11
0.615506
 21
0.477376
 31
0.0
  0
LINE
  8
0
 62
     0
 10
0.615506
 20
0.477376
 30
0.0
 11
0.5236
 21
0.521213
 31
0.0
  0
LINE
  8
0
 62
     0
 10
0.5236
 20
0.521213
 30
0.0
 11
0.460503
 21
0.599283
 31
0.0
  0
LINE
  8
0
 62
     0
 10
0.460503
 20
0.599283
 30
0.0
 11
0.457249
 21
0.622017
 31
0.0
  0
LINE
  8
0
 62
     0
 10
0.457249
 20
0.622017
 30
0.0
 11
0.45931
 21
0.646864
 31
0.0
  0
LINE
  8
0
 62
     0
 10
0.45931
 20
0.646864
 30
0.0
 11
0.462511
 21
0.668892
 31
0.0
  0
LINE
  8
0
 62
     0
 10
0.462511
 20
0.668892
 30
0.0
 11
0.46289
 21
0.682943
 31
0.0
  0
LINE
  8
0
 62
     0
 10
0.46289
 20
0.682943
 30
0.0
 11
0.330078
 21
0.643826
 31
0.0
  0
LINE
  8
0
 62
     0
 10
0.330078
 20
0.643826
 30
0.0
 11
0.201226
 21
0.587619
 31
0.0
  0
LINE
  8
0
 62
     0
 10
0.201226
 20
0.587619
 30
0.0
 11
0.0913086
 21
0.506076
 31
0.0
  0
LINE
  8
0
 62
     0
 10
0.0913086
 20
0.506076
 30
0.0
 11
0.0153537
 21
0.39095
 31
0.0
  0
LINE
  8
0
 62
     0
 10
0.0153537
 20
0.39095
 30
0.0
 11
0.00954861
 21
0.288954
 31
0.0
  0
LINE
  8
0
 62
     0
 10
0.00954861
 20
0.288954
 30
0.0
 11
0.0498047
 21
0.197646
 31
0.0
  0
LINE
  8
0
 62
     0
 10
0.0498047
 20
0.197646
 30
0.0
 11
0.120117
 21
0.121419
 31
0.0
  0
LINE
  8
0
 62
     0
 10
0.120117
 20
0.121419
 30
0.0
 11
0.20459
 21
0.0645617
 31
0.0
  0
LINE
  8
0
 62
     0
 10
0.20459
 20
0.0645617
 30
0.0
 11
0.265408
 21
0.0341797
 31
0.0
  0
LINE
  8
0
 62
     0
 10
0.265408
 20
0.0341797
 30
0.0
 11
0.328558
 21
0.0100369
 31
0.0
  0
LINE
  8
0
 62
     0
 10
0.328558
 20
0.0100369
 30
0.0
 11
0.312175
 21
0.0550131
 31
0.0
  0
LINE
  8
0
 62
     0
 10
0.312175
 20
0.0550131
 30
0.0
 11
0.316624
 21
0.101237
 31
0.0
  0
LINE
  8
0
 62
     0
 10
0.316624
 20
0.101237
 30
0.0
 11
0.340386
 21
0.140408
 31
0.0
  0
LINE
  8
0
 62
     0
 10
0.340386
 20
0.140408
 30
0.0
 11
0.381999
 21
0.164225
 31
0.0
  0
LINE
  8
0
 62
     0
 10
0.381999
 20
0.164225
 30
0.0
 11
0.444933
 21
0.178549
 31
0.0
  0
LINE
  8
0
 62
     0
 10
0.444933
 20
0.178549
 30
0.0
 11
0.508572
 21
0.170356
 31
0.0
  0
LINE
  8
0
 62
     0
 10
0.508572
 20
0.170356
 30
0.0
 11
0.569336
 21
0.148003
 31
0.0
  0
LINE
  8
0
 62
     0
 10
0.569336
 20
0.148003
 30
0.0
 11
0.623697
 21
0.119846
 31
0.0
  0
LINE
  8
0
 62
     0
 10
0.623697
 20
0.119846
 30
0.0
 11
0.683974
 21
0.163628
 31
0.0
  0
LINE
  8
0
 62
     0
 10
0.683974
 20
0.163628
 30
0.0
 11
0.756347
 21
0.169325
 31
0.0
  0
LINE
  8
0
 62
     0
 10
0.756347
 20
0.169325
 30
0.0
 11
0.828017
 21
0.145019
 31
0.0
  0
LINE
  8
0
 62
     0
 10
0.828017
 20
0.145019
 30
0.0
 11
0.886176
 21
0.0985786
 31
0.0
  0
LINE
  8
0
 62
     0
 10
0.886176
 20
0.0985786
 30
0.0
 11
0.908365
 21
0.0760633
 31
0.0
  0
LINE
  8
0
 62
     0
 10
0.908365
 20
0.0760633
 30
0.0
 11
0.929144
 21
0.0494249
 31
0.0
  0
LINE
  8
0
 62
     0
 10
0.929144
 20
0.0494249
 30
0.0
 11
0.948731
 21
0.0252279
 31
0.0
  0
LINE
  8
0
 62
     0
 10
0.948731
 20
0.0252279
 30
0.0
 11
0.967447
 21
0.0100369
 31
0.0
  0
LINE
  8
0
 62
     0
 10
0.967447
 20
0.0100369
 30
0.0
 11
1.01926
 21
0.0786133
 31
0.0
  0
LINE
  8
0
 62
     0
 10
1.01926
 20
0.0786133
 30
0.0
 11
1.08583
 21
0.136176
 31
0.0
  0
LINE
  8
0
 62
     0
 10
1.08583
 20
0.136176
 30
0.0
 11
1.16363
 21
0.168565
 31
0.0
  0
LINE
  8
0
 62
     0
 10
1.16363
 20
0.168565
 30
0.0
 11
1.24935
 21
0.161512
 31
0.0
  0
LINE
  8
0
 62
     0
 10
1.24935
 20
0.161512
 30
0.0
 11
1.27083
 21
0.149035
 31
0.0
  0
LINE
  8
0
 62
     0
 10
1.27083
 20
0.149035
 30
0.0
 11
1.28944
 21
0.130968
 31
0.0
  0
LINE
  8
0
 62
     0
 10
1.28944
 20
0.130968
 30
0.0
 11
1.30783
 21
0.120931
 31
0.0
  0
LINE
  8
0
 62
     0
 10
1.30783
 20
0.120931
 30
0.0
 11
1.32888
 21
0.132596
 31
0.0
  0
LINE
  8
0
 62
     0
 10
1.32888
 20
0.132596
 30
0.0
 11
1.39871
 21
0.165907
 31
0.0
  0
LINE
  8
0
 62
     0
 10
1.39871
 20
0.165907
 30
0.0
 11
1.47775
 21
0.177735
 31
0.0
  0
LINE
  8
0
 62
     0
 10
1.47775
 20
0.177735
 30
0.0
 11
1.55225
 21
0.160644
 31
0.0
  0
LINE
  8
0
 62
     0
 10
1.55225
 20
0.160644
 30
0.0
 11
1.6084
 21
0.107259
 31
0.0
  0
LINE
  8
0
 62
     0
 10
1.6084
 20
0.107259
 30
0.0
 11
1.61236
 21
0.0576172
 31
0.0
  0
LINE
  8
0
 62
     0
 10
1.61236
 20
0.0576172
 30
0.0
 11
1.59694
 21
0.0100369
 31
0.0
  0
LINE
  8
0
 62
     0
 10
1.59694
 20
0.0100369
 30
0.0
 11
1.70643
 21
0.057346
 31
0.0
  0
LINE
  8
0
 62
     0
 10
1.70643
 20
0.057346
 30
0.0
 11
1.80875
 21
0.124674
 31
0.0
  0
LINE
  8
0
 62
     0
 10
1.80875
 20
0.124674
 30
0.0
 11
1.88553
 21
0.214301
 31
0.0
  0
LINE
  8
0
 62
     0
 10
1.88553
 20
0.214301
 30
0.0
 11
1.91846
 21
0.32845
 31
0.0
  0
LINE
  8
0
 62
     0
 10
1.91846
 20
0.32845
 30
0.0
 11
1.8859
 21
0.440212
 31
0.0
  0
LINE
  8
0
 62
     0
 10
1.8859
 20
0.440212
 30
0.0
 11
1.80985
 21
0.528157
 31
0.0
  0
LINE
  8
0
 62
     0
 10
1.80985
 20
0.528157
 30
0.0
 11
1.70893
 21
0.594781
 31
0.0
  0
LINE
  8
0
 62
     0
 10
1.70893
 20
0.594781
 30
0.0
 11
1.60178
 21
0.642415
 31
0.0
  0
LINE
  8
0
 62
     0
 10
1.60178
 20
0.642415
 30
0.0
 11
1.52821
 21
0.666069
 31
0.0
  0
LINE
  8
0
 62
     0
 10
1.52821
 20
0.666069
 30
0.0
 11
1.45665
 21
0.682346
 31
0.0
  0
LINE
  8
0
 62
     0
 10
1.45665
 20
0.682346
 30
0.0
 11
1.46756
 21
0.649197
 31
0.0
  0
LINE
  8
0
 62
     0
 10
1.46756
 20
0.649197
 30
0.0
 11
1.46761
 21
0.617133
 31
0.0
  0
LINE
  8
0
 62
     0
 10
1.46761
 20
0.617133
 30
0.0
 11
1.45839
 21
0.586806
 31
0.0
  0
LINE
  8
0
 62
     0
 10
1.45839
 20
0.586806
 30
0.0
 11
1.44162
 21
0.558974
 31
0.0
  0
LINE
  8
0
 62
     0
 10
1.44162
 20
0.558974
 30
0.0
 11
1.41894
 21
0.534233
 31
0.0
  0
LINE
  8
0
 62
     0
 10
1.41894
 20
0.534233
 30
0.0
 11
1.39208
 21
0.513237
 31
0.0
  0
LINE
  8
0
 62
     0
 10
1.39208
 20
0.513237
 30
0.0
 11
1.36263
 21
0.496799
 31
0.0
  0
LINE
  8
0
 62
     0
 10
1.36263
 20
0.496799
 30
0.0
 11
1.33236
 21
0.485406
 31
0.0
  0
LINE
  8
0
 62
     0
 10
1.33236
 20
0.485406
 30
0.0
 11
1.27262
 21
0.470811
 31
0.0
  0
LINE
  8
0
 62
     0
 10
1.27262
 20
0.470811
 30
0.0
 11
1.20947
 21
0.469075
 31
0.0
  0
LINE
  8
0
 62
     0
 10
1.20947
 20
0.469075
 30
0.0
 11
1.14947
 21
0.483453
 31
0.0
  0
LINE
  8
0
 62
     0
 10
1.14947
 20
0.483453
 30
0.0
 11
1.09901
 21
0.516982
 31
0.0
  0
LINE
  8
0
 62
     0
 10
1.09901
 20
0.516982
 30
0.0
 11
1.07796
 21
0.610297
 31
0.0
  0
LINE
  8
0
 62
     0
 10
1.07796
 20
0.610297
 30
0.0
 11
1.06152
 21
0.704915
 31
0.0
  0
LINE
  8
0
 62
     0
 10
1.06152
 20
0.704915
 30
0.0
 11
1.03364
 21
0.669814
 31
0.0
  0
LINE
  8
0
 62
     0
 10
1.03364
 20
0.669814
 30
0.0
 11
0.994194
 21
0.657064
 31
0.0
  0
LINE
  8
0
 62
     0
 10
0.994194
 20
0.657064
 30
0.0
 11
0.948947
 21
0.657118
 31
0.0
  0
LINE
  8
0
 62
     0
 10
0.948947
 20
0.657118
 30
0.0
 11
0.903863
 21
0.660374
 31
0.0
  0
LINE
  8
0
 62
     0
 10
0.903863
 20
0.660374
 30
0.0
 11
0.882542
 21
0.682346
 31
0.0
  0
LINE
  8
0
 62
     0
 10
0.882542
 20
0.682346
 30
0.0
 11
0.864312
 21
0.704156
 31
0.0
  0
ENDSEC
  0
EOF
