<?xml version="1.0" encoding="UTF-8" standalone="no"?>
<!-- Created with Inkscape (http://www.inkscape.org/) -->

<svg
   xmlns:dc="http://purl.org/dc/elements/1.1/"
   xmlns:cc="http://creativecommons.org/ns#"
   xmlns:rdf="http://www.w3.org/1999/02/22-rdf-syntax-ns#"
   xmlns:svg="http://www.w3.org/2000/svg"
   xmlns="http://www.w3.org/2000/svg"
   xmlns:xlink="http://www.w3.org/1999/xlink"
   xmlns:sodipodi="http://sodipodi.sourceforge.net/DTD/sodipodi-0.dtd"
   xmlns:inkscape="http://www.inkscape.org/namespaces/inkscape"
   width="181.25076"
   height="76.63369"
   id="svg3062"
   version="1.1"
   inkscape:version="0.48.4 r9939"
   sodipodi:docname="batman-outer.svg">
  <defs
     id="defs3064" />
  <sodipodi:namedview
     id="base"
     pagecolor="#ffffff"
     bordercolor="#666666"
     borderopacity="1.0"
     inkscape:pageopacity="0.0"
     inkscape:pageshadow="2"
     inkscape:zoom="7.8518142"
     inkscape:cx="90.636818"
     inkscape:cy="38.316389"
     inkscape:document-units="mm"
     inkscape:current-layer="layer1"
     showgrid="false"
     units="mm"
     fit-margin-top="0"
     fit-margin-left="0"
     fit-margin-right="0"
     fit-margin-bottom="0"
     inkscape:window-width="1551"
     inkscape:window-height="876"
     inkscape:window-x="1415"
     inkscape:window-y="24"
     inkscape:window-maximized="1" />
  <metadata
     id="metadata3067">
    <rdf:RDF>
      <cc:Work
         rdf:about="">
        <dc:format>image/svg+xml</dc:format>
        <dc:type
           rdf:resource="http://purl.org/dc/dcmitype/StillImage" />
        <dc:title></dc:title>
      </cc:Work>
    </rdf:RDF>
  </metadata>
  <g
     inkscape:label="Layer 1"
     inkscape:groupmode="layer"
     id="layer1"
     transform="translate(-266.50604,-442.61631)">
    <path
       sodipodi:type="inkscape:offset"
       inkscape:radius="2.3436718"
       inkscape:original="M 347.15625 445.15625 L 347.03125 445.84375 C 346.96625 446.22554 346.6727 448.01879 346.375 449.8125 C 345.3979 455.69904 343.9568 463.2343 343.4375 465.15625 C 343.0538 466.57612 342.57675 466.99402 340.28125 467.875 C 336.78415 469.21716 331.91865 469.77717 329.15625 469.15625 C 326.78875 468.6241 326.2007 468.46158 325 468.0625 C 319.8095 466.33739 315.52775 462.94678 314.09375 459.46875 C 313.89795 458.99401 313.77775 457.98288 313.78125 456.625 C 313.79125 454.64513 313.8418 454.4464 314.5625 452.9375 C 315.0869 451.84046 315.7375 450.89558 316.625 450 C 317.3393 449.27922 317.73875 448.76441 317.53125 448.84375 C 317.32385 448.92305 316.40055 449.13833 315.46875 449.3125 C 313.63355 449.65554 309.78735 450.5099 308.59375 450.84375 C 300.78195 453.02868 296.6079 454.52821 291.4375 457 C 281.5459 461.7289 274.69935 467.71196 271.40625 474.53125 C 269.88405 477.68336 269.39225 479.21156 269.15625 481.5625 C 268.58465 487.25719 270.31 492.94666 274.0625 497.875 C 276.5199 501.10241 280.50025 504.69302 284.65625 507.375 C 287.86245 509.44408 289.75165 510.43877 294.96875 512.84375 C 296.43355 513.51901 303.5483 515.875 304.125 515.875 C 304.5368 515.875 304.4843 515.75886 303.625 514.5625 C 301.499 511.60245 300.40785 508.58243 300.59375 506.28125 C 300.78665 503.894 302.054 502.32593 304.875 500.9375 C 306.9043 499.93871 308.9084 499.46803 311.125 499.46875 C 315.64 499.46975 319.5351 500.82398 324.75 504.21875 L 326.875 505.59375 L 327.625 504.6875 C 329.0527 502.95701 330.55035 501.65277 331.96875 500.9375 C 333.28355 500.27447 333.5646 500.2054 335.75 500.125 C 337.6649 500.0546 338.46125 500.14041 339.90625 500.5 C 344.68165 501.68919 349.3077 505.53937 354.5 512.65625 C 355.4476 513.95513 356.25 515.07361 356.25 515.15625 C 356.25 515.28896 357.13145 516.71508 357.21875 516.71875 C 357.23775 516.71959 358.17355 515.36782 359.28125 513.71875 C 360.38895 512.06969 361.4745 510.51389 361.6875 510.28125 C 361.9005 510.0486 362.44035 509.38783 362.90625 508.8125 C 364.76615 506.51583 367.62935 503.94106 369.84375 502.5625 C 372.90785 500.65506 375.37215 499.9752 378.78125 500.125 C 380.87965 500.2172 381.25295 500.29625 382.46875 500.90625 C 383.74365 501.54595 385.6665 503.23182 387 504.875 L 387.5625 505.59375 L 389.625 504.21875 C 397.4818 499.06775 404.5526 498.06152 410.25 501.28125 C 411.515 501.99615 412.71765 503.15304 413.28125 504.1875 C 413.93435 505.38623 413.89385 508.31748 413.21875 509.96875 C 412.48185 511.76994 411.51635 513.54054 410.59375 514.78125 L 409.75 515.9375 L 410.59375 515.78125 C 411.66085 515.58427 417.268 513.74402 418.5 513.1875 C 419.0241 512.95074 420.3161 512.37088 421.375 511.90625 C 422.4338 511.44163 423.63425 510.87715 424.03125 510.65625 C 424.42835 510.43536 425.33245 509.94674 426.03125 509.5625 C 437.78165 503.10193 444.50375 494.62337 445.15625 485.46875 C 445.44465 481.42252 444.8926 478.70153 443 474.625 C 442.4317 473.40089 440.7814 470.82787 439.625 469.40625 C 434.7266 463.38444 428.07605 458.9401 417.65625 454.6875 C 414.73075 453.49353 411.8867 452.5482 406.75 451.09375 C 405.1917 450.65251 401.50635 449.81742 398.78125 449.28125 C 397.89345 449.10658 396.98965 448.89193 396.78125 448.8125 C 396.57295 448.7331 396.8357 449.1001 397.375 449.59375 C 398.6803 450.78914 399.84115 452.52162 400.34375 454.09375 C 400.93335 455.9383 400.76825 458.50832 399.96875 460.1875 C 399.09395 462.02471 396.1749 464.84554 393.8125 466.125 C 386.6991 469.97745 379.2363 470.4129 372.9375 467.3125 C 371.4732 466.59173 371.372 466.4712 371.125 465.59375 C 370.6944 464.06384 369.38035 457.39774 368.53125 452.4375 C 368.02945 449.506 367.49155 446.53459 367.34375 445.84375 C 367.25675 445.43676 366.81565 445.88645 364.53125 448.78125 L 361.8125 452.21875 L 357.4375 452.28125 C 355.0206 452.31255 352.9057 452.27661 352.75 452.1875 C 352.4411 452.01062 351.57195 450.91872 348.90625 447.4375 L 347.15625 445.15625 z "
       xlink:href="#path3024"
       style="fill:none;stroke:#000000;stroke-width:0.35433072;stroke-miterlimit:4;stroke-dasharray:none"
       id="path3038"
       inkscape:href="#path3024"
       d="m 346.96875,442.8125 a 2.3439062,2.3439062 0 0 0 -2.125,1.9375 l -0.125,0.6875 c -0.0728,0.42787 -0.35912,2.2097 -0.65625,4 -0.96905,5.83804 -2.47326,13.6069 -2.875,15.09375 -0.14314,0.52969 -0.11042,0.36669 -0.15625,0.40625 -0.0458,0.0396 -0.51103,0.33447 -1.59375,0.75 -3.0218,1.15974 -7.88752,1.61316 -9.78125,1.1875 -2.3489,-0.52797 -2.74217,-0.64434 -3.90625,-1.03125 -4.68437,-1.55689 -8.48806,-4.82689 -9.5,-7.28125 0.12253,0.29708 -0.12814,-0.72093 -0.125,-1.9375 0.01,-1.94077 -0.14208,-1.21236 0.5625,-2.6875 0.42493,-0.88896 0.8833,-1.56433 1.59375,-2.28125 0.39977,-0.4034 0.73076,-0.74917 1,-1.09375 0.13462,-0.17229 0.23273,-0.22496 0.46875,-0.8125 0.059,-0.14688 0.15791,-0.32829 0.1875,-0.71875 0.0296,-0.39046 -0.0426,-1.17032 -0.65625,-1.8125 -0.61364,-0.64218 -1.43925,-0.73882 -1.84375,-0.71875 -0.4045,0.0201 -0.59817,0.0982 -0.75,0.15625 0.31912,-0.12202 -0.0987,0.0161 -0.4375,0.0937 -0.33877,0.0776 -0.78685,0.16927 -1.21875,0.25 -1.9447,0.36351 -5.61002,1.18749 -7.0625,1.59375 -7.87112,2.20152 -12.25079,3.75684 -17.53125,6.28125 -10.20594,4.87918 -17.54342,11.14363 -21.15625,18.625 -1.56523,3.24122 -2.21051,5.27127 -2.46875,7.84375 -0.6339,6.31536 1.30559,12.59295 5.375,17.9375 2.68879,3.53131 6.80359,7.23344 11.1875,10.0625 3.27109,2.11096 5.38013,3.20722 10.625,5.625 1.10144,0.50775 3.09106,1.19123 5.15625,1.875 1.0326,0.34189 2.00824,0.66484 2.8125,0.90625 0.40213,0.12071 0.76205,0.20305 1.0625,0.28125 0.30045,0.0782 0.22378,0.1875 1.09375,0.1875 0.21311,0 0.6112,0.25806 1.625,-0.5 0.5069,-0.37903 0.92911,-1.20847 0.96875,-1.78125 0.0396,-0.57278 -0.10088,-0.90102 -0.1875,-1.125 -0.34648,-0.89592 -0.56258,-1.016 -1,-1.625 -1.90704,-2.65519 -2.70713,-5.31528 -2.59375,-6.71875 0.13316,-1.64795 0.5255,-2.23499 2.96875,-3.4375 1.74252,-0.85764 3.33438,-1.21936 5.21875,-1.21875 4.04666,9e-4 7.3372,1.11586 12.34375,4.375 l 2.125,1.375 a 2.3439062,2.3439062 0 0 0 3.09375,-0.46875 l 0.75,-0.90625 c 1.28355,-1.55577 2.60586,-2.65808 3.59375,-3.15625 1.25333,-0.63203 0.669,-0.48364 2.8125,-0.5625 1.82119,-0.067 2.16602,-0.0195 3.5,0.3125 3.96877,0.98832 8.21114,4.34344 13.25,11.25 0.47066,0.64513 0.91461,1.25632 1.21875,1.6875 0.12922,0.18319 0.21304,0.30461 0.28125,0.40625 0.003,0.004 0.0288,-0.004 0.0312,0 0.0168,0.0388 0.0166,0.0938 0.0312,0.125 0.0611,0.13022 0.1308,0.24087 0.1875,0.34375 0.11339,0.20575 0.24273,0.41135 0.375,0.625 0.13227,0.21365 0.24079,0.43228 0.375,0.625 0.0671,0.0964 0.14677,0.18653 0.25,0.3125 0.0516,0.063 0.1149,0.12177 0.25,0.25 0.0675,0.0641 0.1322,0.13017 0.3125,0.25 0.0901,0.0599 0.22496,0.14173 0.40625,0.21875 0.0906,0.0385 0.1783,0.0903 0.3125,0.125 0.1342,0.0347 0.49932,0.0625 0.5,0.0625 7e-5,0 0.90615,-0.15621 0.90625,-0.15625 10e-5,-4e-5 0.40612,-0.18742 0.40625,-0.1875 2.6e-4,-1.6e-4 0.25104,-0.16544 0.3125,-0.21875 0.12292,-0.10661 0.15236,-0.18031 0.1875,-0.21875 0.0703,-0.0769 0.10341,-0.0979 0.125,-0.125 0.0432,-0.0542 0.07,-0.0616 0.0937,-0.0937 0.0475,-0.0643 0.0976,-0.13575 0.15625,-0.21875 0.11734,-0.16601 0.27804,-0.4107 0.46875,-0.6875 0.38143,-0.55361 0.87859,-1.29293 1.4375,-2.125 0.54648,-0.81356 1.10631,-1.61109 1.53125,-2.21875 0.21247,-0.30383 0.39708,-0.56603 0.53125,-0.75 0.13417,-0.18397 0.28078,-0.35765 0.125,-0.1875 0.37363,-0.4081 0.84169,-1.01235 1.3125,-1.59375 1.65871,-2.04823 4.50263,-4.55312 6.375,-5.71875 2.7976,-1.74154 4.54483,-2.22772 7.59375,-2.09375 2.05189,0.0902 1.60228,-0.0289 2.71875,0.53125 0.6383,0.32028 2.61219,1.92449 3.75,3.3125 0.01,0.0122 0.0213,0.019 0.0312,0.0312 l 0.53125,0.6875 a 2.3439062,2.3439062 0 0 0 3.15625,0.5 l 2.03125,-1.34375 0.0312,-0.0312 c 7.41647,-4.85107 13.37242,-5.5472 18.15625,-2.84375 0.87606,0.49509 1.88032,1.5509 2.125,2 -0.0672,-0.12326 0.19757,0.71062 0.1875,1.5625 -0.0101,0.85188 -0.18382,1.82757 -0.34375,2.21875 -0.66906,1.63536 -1.59106,3.26903 -2.34375,4.28125 a 2.3439062,2.3439062 0 0 0 -0.0312,0.0312 l -0.84375,1.15625 a 2.3439062,2.3439062 0 0 0 2.34375,3.6875 l 0.84375,-0.15625 c 1.09414,-0.20197 2.46803,-0.68581 4.1875,-1.25 1.71947,-0.56419 3.30158,-1.10283 4.25,-1.53125 0.51554,-0.23289 1.79952,-0.79181 2.84375,-1.25 1.10152,-0.48337 2.17501,-0.97165 2.84375,-1.34375 0.35957,-0.20001 1.2884,-0.70247 2,-1.09375 12.17831,-6.69584 19.61739,-15.80914 20.34375,-26 0.30878,-4.33211 -0.38797,-7.72007 -2.375,-12 -0.76983,-1.65819 -2.34633,-4.03874 -3.6875,-5.6875 -5.19748,-6.38948 -12.28056,-11.06962 -22.90625,-15.40625 -3.0168,-1.23123 -5.98161,-2.22231 -11.15625,-3.6875 -1.74446,-0.49395 -5.37158,-1.32711 -8.15625,-1.875 -0.41328,-0.0813 -0.82536,-0.17213 -1.15625,-0.25 -0.33089,-0.0779 -0.73038,-0.20538 -0.4375,-0.0937 -0.23017,-0.0877 -0.55973,-0.35402 -1.5625,-0.0625 -0.50139,0.14576 -1.14874,0.6117 -1.4375,1.1875 -0.28876,0.5758 -0.28642,1.07577 -0.25,1.375 0.14567,1.19691 0.39404,1.06605 0.53125,1.25 0.27442,0.36789 0.53181,0.62336 0.875,0.9375 0.98393,0.90108 2.00781,2.44919 2.34375,3.5 0.35874,1.12232 0.17308,3.42078 -0.28125,4.375 -0.40512,0.85081 -3.35139,3.8975 -5.15625,4.875 -6.57485,3.56078 -13.15604,3.89433 -18.71875,1.15625 -0.53711,-0.26438 -0.57197,-0.31288 -0.59375,-0.3125 -0.29554,-1.06825 -1.69499,-7.98976 -2.53125,-12.875 -0.50436,-2.94644 -1.0267,-5.78981 -1.21875,-6.6875 -0.0624,-0.29197 -0.12587,-0.82598 -0.8125,-1.40625 -0.68663,-0.58027 -1.86137,-0.61099 -2.375,-0.4375 -1.02725,0.34698 -1.0907,0.64152 -1.375,0.9375 -0.56494,0.58814 -1.23761,1.43381 -2.375,2.875 -0.007,0.009 0.007,0.0218 0,0.0312 l -2.03125,2.5625 -3.25,0.0312 c -1.18799,0.0154 -2.31224,0.0155 -3.125,0 -0.20296,-0.004 -0.30928,0.005 -0.46875,0 -0.097,-0.11505 -0.14496,-0.17482 -0.28125,-0.34375 -0.55768,-0.69128 -1.41999,-1.85685 -2.75,-3.59375 l -1.75,-2.28125 a 2.3439062,2.3439062 0 0 0 -2.0625,-0.90625 z" />
    <path
       inkscape:connector-curvature="0"
       style="fill:none;stroke:#000000;stroke-width:0.35433072;stroke-miterlimit:4;stroke-dasharray:none"
       d="m 359.271,513.71552 c 1.1077,-1.64906 2.1882,-3.18864 2.4012,-3.42128 0.213,-0.23265 0.7684,-0.89372 1.2343,-1.46905 1.8599,-2.29667 4.7224,-4.8788 6.9368,-6.25736 3.0641,-1.90744 5.533,-2.57781 8.9421,-2.42801 2.0984,0.0922 2.4702,0.17099 3.686,0.78099 1.2749,0.6397 3.2002,2.32469 4.5337,3.96787 l 0.5632,0.69406 2.0698,-1.35701 c 7.8568,-5.151 14.9028,-6.15497 20.6002,-2.93524 1.265,0.7149 2.4721,1.86968 3.0357,2.90414 0.6531,1.19873 0.6301,4.13491 -0.045,5.78618 -0.7369,1.80119 -1.7034,3.57302 -2.626,4.81373 l -0.8438,1.13491 0.8221,-0.15175 c 1.0671,-0.19698 6.6846,-2.03795 7.9166,-2.59447 0.5241,-0.23676 1.8194,-0.81062 2.8783,-1.27525 1.0588,-0.46462 2.2501,-1.0255 2.6471,-1.2464 0.3971,-0.22089 1.2938,-0.71601 1.9926,-1.10025 11.7504,-6.46057 18.4841,-14.93827 19.1366,-24.09289 0.2884,-4.04623 -0.2475,-6.75941 -2.1401,-10.83594 -0.5683,-1.22411 -2.2409,-3.78995 -3.3973,-5.21157 -4.8984,-6.02181 -11.5445,-10.47961 -21.9643,-14.73221 -2.9255,-1.19397 -5.7697,-2.12831 -10.9064,-3.58276 -1.5583,-0.44124 -5.2423,-1.28186 -7.9674,-1.81803 -0.8878,-0.17467 -1.7846,-0.38256 -1.993,-0.46199 -0.2083,-0.0794 0.062,0.25949 0.6013,0.75314 1.3053,1.19539 2.448,2.94472 2.9506,4.51685 0.5896,1.84455 0.4365,4.41406 -0.363,6.09324 -0.8748,1.83721 -3.8082,4.66133 -6.1706,5.94079 -7.1134,3.85245 -14.5653,4.27029 -20.8641,1.16989 -1.4643,-0.72077 -1.5764,-0.82552 -1.8234,-1.70297 -0.4306,-1.52991 -1.7461,-8.20204 -2.5952,-13.16228 -0.5018,-2.9315 -1.0328,-5.89285 -1.1806,-6.58369 -0.087,-0.40699 -0.5235,0.0509 -2.8079,2.9457 l -2.7049,3.42758 -4.3945,0.0569 c -2.4169,0.0313 -4.5218,-0.0161 -4.6775,-0.10521 -0.3089,-0.17688 -1.1958,-1.26758 -3.8615,-4.7488 l -1.7399,-2.27222 -0.1176,0.69417 c -0.065,0.38179 -0.3611,2.16176 -0.6588,3.95547 -0.9771,5.88654 -2.4242,13.43774 -2.9435,15.35969 -0.3837,1.41987 -0.8532,1.8231 -3.1487,2.70408 -3.4971,1.34216 -8.3522,1.90158 -11.1146,1.28066 -2.3675,-0.53215 -2.9697,-0.68932 -4.1704,-1.0884 -5.1905,-1.72511 -9.4864,-5.09929 -10.9204,-8.57732 -0.1958,-0.47474 -0.3018,-1.48491 -0.2983,-2.84279 0.01,-1.97987 0.052,-2.20278 0.7727,-3.71168 0.5244,-1.09704 1.1785,-2.02024 2.066,-2.91582 0.7143,-0.72078 1.129,-1.24561 0.9215,-1.16627 -0.2074,0.0793 -1.1396,0.28675 -2.0714,0.46092 -1.8352,0.34304 -5.6891,1.20433 -6.8827,1.53818 -7.8118,2.18493 -11.9834,3.68129 -17.1538,6.15308 -9.8916,4.7289 -16.7193,10.70916 -20.0124,17.52845 -1.5222,3.15211 -2.016,4.69768 -2.252,7.04862 -0.5716,5.69469 1.1302,11.37818 4.8827,16.30652 2.4574,3.22741 6.4638,6.80741 10.6198,9.48939 3.2062,2.06908 5.0828,3.06586 10.2999,5.47084 1.4648,0.67526 8.5827,3.02953 9.1594,3.02953 0.4118,0 0.3659,-0.12285 -0.4934,-1.31921 -2.126,-2.96005 -3.2308,-5.95616 -3.0449,-8.25734 0.1929,-2.38725 1.4541,-3.9672 4.2751,-5.35563 2.0293,-0.99879 4.0443,-1.47243 6.2609,-1.47171 4.515,10e-4 8.4217,1.36508 13.6366,4.75985 l 2.1005,1.36736 0.7515,-0.91085 c 1.4277,-1.73049 2.9384,-3.02877 4.3568,-3.74404 1.3148,-0.66303 1.6043,-0.72453 3.7897,-0.80493 1.9149,-0.0704 2.7068,-0.002 4.1518,0.35759 4.7754,1.18919 9.406,5.04787 14.5983,12.16475 0.9476,1.29888 1.7229,2.42922 1.7229,2.51186 0,0.13271 0.8999,1.53882 0.9872,1.54249 0.019,8.4e-4 0.9405,-1.34779 2.0482,-2.99686 z"
       id="path3024" />
    <path
       inkscape:connector-curvature="0"
       style="fill:none;stroke:#000000;stroke-width:0.35433072;stroke-miterlimit:4;stroke-dasharray:none"
       d="m 348.3392,450.1078 c -1.644,5.91281 -0.8956,13.04949 -4.4688,18.1875 -10.4316,6.28128 -26.7355,2.58087 -31.875,-8.75 -0.8634,-2.38943 0.5124,-6.51796 0.2188,-7.53125 -15.5741,4.00771 -33.7961,10.12492 -40.2812,26.28125 -4.0931,12.71726 6.6899,23.88946 17.0312,29.375 3.6119,1.89144 7.2715,3.77264 11.1562,4.90625 -3.2702,-4.9798 -1.1828,-12.26703 4.8126,-13.875 7.3711,-3.39872 15.7594,0.61583 21.75,4 6.002,-7.85396 17.9722,-4.66892 23.625,1.90625 2.7606,2.19264 5.1223,6.95443 7.3124,7.96875 5.2051,-8.31089 14.7578,-17.41099 25.375,-13.625 2.8679,0.61812 4.3653,5.84244 7.1563,2.59375 7.2737,-4.98312 20.0786,-6.59319 25.1563,2.28125 0.9282,2.90843 0.3773,6.09943 -1.0313,8.75 12.8427,-4.5525 28.3478,-13.39415 28.9375,-28.65625 -0.5534,-14.92184 -16.0108,-23.57928 -28.5,-28.25 -4.2111,-1.37691 -9.0949,-3.10709 -13.0625,-3.59375 4.0713,8.03124 -3.9424,15.67071 -11.1875,17.71875 -6.6999,2.40324 -15.7807,2.46465 -21,-2.84375 -1.6077,-5.47877 -2.3089,-11.27419 -3.375,-16.90625 -2.4071,5.93225 -9.019,4.21319 -14.1875,4 -1.4799,-1.0149 -2.4535,-2.93147 -3.5625,-3.9375 z"
       id="path3825" />
  </g>
</svg>
