<?xml version="1.0" encoding="UTF-8" standalone="no"?>
<!-- Created with Inkscape (http://www.inkscape.org/) -->

<svg
   xmlns:dc="http://purl.org/dc/elements/1.1/"
   xmlns:cc="http://creativecommons.org/ns#"
   xmlns:rdf="http://www.w3.org/1999/02/22-rdf-syntax-ns#"
   xmlns:svg="http://www.w3.org/2000/svg"
   xmlns="http://www.w3.org/2000/svg"
   xmlns:xlink="http://www.w3.org/1999/xlink"
   xmlns:sodipodi="http://sodipodi.sourceforge.net/DTD/sodipodi-0.dtd"
   xmlns:inkscape="http://www.inkscape.org/namespaces/inkscape"
   width="179.43556"
   height="74.832329"
   id="svg3005"
   version="1.1"
   inkscape:version="0.48.4 r9939"
   sodipodi:docname="batman-inner.svg">
  <defs
     id="defs3007" />
  <sodipodi:namedview
     id="base"
     pagecolor="#ffffff"
     bordercolor="#666666"
     borderopacity="1.0"
     inkscape:pageopacity="0.0"
     inkscape:pageshadow="2"
     inkscape:zoom="5.5518671"
     inkscape:cx="87.234055"
     inkscape:cy="36.589069"
     inkscape:document-units="mm"
     inkscape:current-layer="layer1"
     showgrid="false"
     units="mm"
     fit-margin-top="0"
     fit-margin-left="0"
     fit-margin-right="0"
     fit-margin-bottom="0"
     inkscape:window-width="1551"
     inkscape:window-height="876"
     inkscape:window-x="1415"
     inkscape:window-y="24"
     inkscape:window-maximized="1" />
  <metadata
     id="metadata3010">
    <rdf:RDF>
      <cc:Work
         rdf:about="">
        <dc:format>image/svg+xml</dc:format>
        <dc:type
           rdf:resource="http://purl.org/dc/dcmitype/StillImage" />
        <dc:title></dc:title>
      </cc:Work>
    </rdf:RDF>
  </metadata>
  <g
     inkscape:label="Layer 1"
     inkscape:groupmode="layer"
     id="layer1"
     transform="translate(-152.2935,-254.87416)">
    <path
       transform="translate(-115.12255,-188.63726)"
       d="m 346.90625,443.71875 a 1.4473076,1.4473076 0 0 0 -1.1875,1.1875 l -0.125,0.6875 c -0.0698,0.41024 -0.3589,2.17714 -0.65625,3.96875 -0.97213,5.85659 -2.45954,13.56547 -2.90625,15.21875 -0.16177,0.59864 -0.20423,0.66934 -0.40625,0.84375 -0.20202,0.17441 -0.7674,0.48117 -1.875,0.90625 -3.20361,1.22952 -8.05523,1.7191 -10.28125,1.21875 -2.35602,-0.52957 -2.82191,-0.67094 -4,-1.0625 -4.87798,-1.62124 -8.85786,-4.93531 -10.03125,-7.78125 7.6e-4,0.002 -0.22203,-1.01062 -0.21875,-2.28125 0.01,-1.95573 -0.0545,-1.57444 0.65625,-3.0625 0.46298,-0.96855 1.00307,-1.74599 1.78125,-2.53125 0.38347,-0.38695 0.67757,-0.73858 0.90625,-1.03125 0.11434,-0.14634 0.19058,-0.18121 0.34375,-0.5625 0.0383,-0.0953 0.1065,-0.22455 0.125,-0.46875 0.0185,-0.2442 -0.0259,-0.72696 -0.40625,-1.125 -0.38035,-0.39804 -0.87206,-0.4813 -1.125,-0.46875 -0.25294,0.0125 -0.40129,0.0873 -0.5,0.125 0.15738,-0.0602 -0.21055,0.0444 -0.5625,0.125 -0.35195,0.0806 -0.8051,0.16684 -1.25,0.25 -1.90282,0.35568 -5.6153,1.18394 -6.96875,1.5625 -7.84843,2.19518 -12.16789,3.74572 -17.40625,6.25 -10.0857,4.82169 -17.22823,10.99064 -20.71875,18.21875 -1.54877,3.20713 -2.12527,5.01226 -2.375,7.5 -0.61007,6.07794 1.23932,12.15841 5.1875,17.34375 2.60028,3.41506 6.67202,7.07095 10.96875,9.84375 3.24627,2.09494 5.26575,3.14962 10.5,5.5625 0.96027,0.44268 3.00929,1.16394 5.0625,1.84375 1.02661,0.3399 2.02097,0.63741 2.8125,0.875 0.39577,0.1188 0.71785,0.23907 1,0.3125 0.28215,0.0734 0.31024,0.125 0.875,0.125 0.17097,0 0.45262,0.1669 1.09375,-0.3125 0.32057,-0.2397 0.56854,-0.76067 0.59375,-1.125 0.0252,-0.36433 -0.0649,-0.56337 -0.125,-0.71875 -0.24036,-0.62152 -0.44055,-0.83264 -0.875,-1.4375 -1.9908,-2.7718 -2.92237,-5.56564 -2.78125,-7.3125 0.15601,-1.93075 0.881,-2.88262 3.46875,-4.15625 1.85222,-0.91163 3.61355,-1.3444 5.625,-1.34375 4.22581,9.4e-4 7.7575,1.22023 12.84375,4.53125 l 2.125,1.375 A 1.4473076,1.4473076 0 0 0 328,506.53125 l 0.75,-0.90625 a 1.4473076,1.4473076 0 0 0 0,-0.0312 c 1.33869,-1.62261 2.72243,-2.79378 3.875,-3.375 1.27685,-0.64389 1.02797,-0.5768 3.1875,-0.65625 1.85703,-0.0683 2.37355,0.001 3.75,0.34375 4.27733,1.06516 8.6837,4.60674 13.78125,11.59375 0.47186,0.64678 0.9089,1.24824 1.21875,1.6875 0.1485,0.21052 0.26916,0.38734 0.34375,0.5 0.003,0.005 -0.003,0.0266 0,0.0312 0.0142,0.0215 0.0214,0.0157 0.0312,0.0312 0.0158,0.0249 0.032,0.0638 0.0312,0.0625 0.007,0.0161 -0.007,0.0475 0,0.0625 0.047,0.10018 0.10518,0.18857 0.15625,0.28125 0.10215,0.18535 0.21784,0.39037 0.34375,0.59375 0.12591,0.20338 0.25582,0.39137 0.375,0.5625 0.0596,0.0856 0.11134,0.15707 0.1875,0.25 0.0381,0.0465 0.0685,0.10424 0.15625,0.1875 0.0439,0.0416 0.1058,0.0812 0.21875,0.15625 0.0565,0.0375 0.13739,0.10841 0.25,0.15625 0.0563,0.0239 0.10434,0.041 0.1875,0.0625 0.0832,0.0215 0.31182,0.0312 0.3125,0.0312 7e-5,0 0.5624,-0.0937 0.5625,-0.0937 10e-5,-4e-5 0.24987,-0.0937 0.25,-0.0937 2.6e-4,-1.6e-4 0.14941,-0.12321 0.1875,-0.15625 0.0762,-0.0661 0.10285,-0.10077 0.125,-0.125 0.0443,-0.0485 0.0789,-0.0751 0.0937,-0.0937 0.0298,-0.0374 0.0422,-0.035 0.0625,-0.0625 0.0406,-0.0551 0.0682,-0.13835 0.125,-0.21875 0.11366,-0.16079 0.27931,-0.38129 0.46875,-0.65625 0.37889,-0.54992 0.88053,-1.29581 1.4375,-2.125 0.5493,-0.81775 1.1019,-1.60477 1.53125,-2.21875 0.21468,-0.30699 0.39139,-0.58949 0.53125,-0.78125 0.13986,-0.19176 0.29457,-0.36407 0.21875,-0.28125 0.31219,-0.34099 0.81232,-0.95217 1.28125,-1.53125 1.73567,-2.14327 4.5593,-4.69042 6.5625,-5.9375 2.89954,-1.805 4.9383,-2.35878 8.125,-2.21875 2.06968,0.0909 1.93928,0.0458 3.09375,0.625 0.88529,0.44421 2.85274,2.10304 4.0625,3.59375 l 0.5625,0.71875 a 1.4473076,1.4473076 0 0 0 1.9375,0.3125 l 2.03125,-1.375 c 0.008,-0.005 0.0229,0.005 0.0312,0 7.58507,-4.96542 13.96095,-5.80691 19.09375,-2.90625 1.02484,0.57918 2.10208,1.67074 2.46875,2.34375 0.0835,0.15316 0.32364,1.08864 0.3125,2.03125 -0.0111,0.94261 -0.20963,1.94263 -0.4375,2.5 -0.69501,1.6988 -1.61981,3.40038 -2.4375,4.5 a 1.4473076,1.4473076 0 0 0 0,0.0312 l -0.84375,1.15625 A 1.4473076,1.4473076 0 0 0 410,517.375 l 0.84375,-0.15625 c 0.8797,-0.16239 2.38587,-0.65836 4.09375,-1.21875 1.70788,-0.56039 3.33499,-1.12902 4.15625,-1.5 0.51881,-0.23437 1.82516,-0.8206 2.875,-1.28125 1.08518,-0.4762 2.21646,-0.99824 2.78125,-1.3125 0.37392,-0.208 1.26205,-0.67392 1.96875,-1.0625 12.01463,-6.60585 19.17689,-15.48678 19.875,-25.28125 0.30098,-4.22276 -0.33034,-7.36037 -2.28125,-11.5625 -0.69274,-1.49215 -2.29201,-3.93812 -3.5625,-5.5 -5.08307,-6.24884 -12.01556,-10.85176 -22.5625,-15.15625 -2.98188,-1.21698 -5.87112,-2.19517 -11.03125,-3.65625 -1.67325,-0.47379 -5.33187,-1.26909 -8.09375,-1.8125 -0.425,-0.0836 -0.87559,-0.20049 -1.21875,-0.28125 -0.34316,-0.0808 -0.70349,-0.17874 -0.5625,-0.125 -0.15208,-0.058 -0.34509,-0.24381 -0.96875,-0.0625 -0.31183,0.0906 -0.72703,0.39262 -0.90625,0.75 -0.17922,0.35738 -0.14785,0.65602 -0.125,0.84375 0.0914,0.75091 0.23855,0.70272 0.34375,0.84375 0.2104,0.28207 0.46619,0.52411 0.78125,0.8125 1.10686,1.01366 2.16281,2.62477 2.5625,3.875 0.44705,1.39859 0.27386,3.79972 -0.3125,5.03125 -0.58478,1.22813 -3.51312,4.18824 -5.53125,5.28125 -6.78085,3.67235 -13.71822,4.03293 -19.5625,1.15625 -0.71533,-0.3521 -1.01145,-0.54225 -1,-0.53125 0.0115,0.011 0.083,0.12449 -0.0312,-0.28125 -0.34161,-1.21372 -1.71891,-8.07197 -2.5625,-13 -0.50338,-2.94072 -1.04362,-5.83768 -1.21875,-6.65625 -0.0427,-0.19974 -0.0978,-0.53991 -0.53125,-0.90625 -0.43349,-0.36634 -1.16577,-0.39414 -1.5,-0.28125 -0.66846,0.22579 -0.74666,0.45501 -1,0.71875 -0.50667,0.52748 -1.16481,1.35815 -2.3125,2.8125 l -2.3125,2.90625 -3.6875,0.0625 c -1.19581,0.0155 -2.29788,0.0158 -3.125,0 -0.36192,-0.007 -0.6543,-0.0199 -0.875,-0.0312 -0.13041,-0.14529 -0.30402,-0.33585 -0.5625,-0.65625 -0.56971,-0.70618 -1.45015,-1.85543 -2.78125,-3.59375 l -1.75,-2.28125 a 1.4473076,1.4473076 0 0 0 -1.40625,-0.5625 z"
       inkscape:href="#path3024"
       id="path2986"
       style="fill:none;stroke:#000000;stroke-width:0.35433072;stroke-miterlimit:4;stroke-dasharray:none"
       xlink:href="#path3024"
       inkscape:original="M 347.15625 445.15625 L 347.03125 445.84375 C 346.96625 446.22554 346.6727 448.01879 346.375 449.8125 C 345.3979 455.69904 343.9568 463.2343 343.4375 465.15625 C 343.0538 466.57612 342.57675 466.99402 340.28125 467.875 C 336.78415 469.21716 331.91865 469.77717 329.15625 469.15625 C 326.78875 468.6241 326.2007 468.46158 325 468.0625 C 319.8095 466.33739 315.52775 462.94678 314.09375 459.46875 C 313.89795 458.99401 313.77775 457.98288 313.78125 456.625 C 313.79125 454.64513 313.8418 454.4464 314.5625 452.9375 C 315.0869 451.84046 315.7375 450.89558 316.625 450 C 317.3393 449.27922 317.73875 448.76441 317.53125 448.84375 C 317.32385 448.92305 316.40055 449.13833 315.46875 449.3125 C 313.63355 449.65554 309.78735 450.5099 308.59375 450.84375 C 300.78195 453.02868 296.6079 454.52821 291.4375 457 C 281.5459 461.7289 274.69935 467.71196 271.40625 474.53125 C 269.88405 477.68336 269.39225 479.21156 269.15625 481.5625 C 268.58465 487.25719 270.31 492.94666 274.0625 497.875 C 276.5199 501.10241 280.50025 504.69302 284.65625 507.375 C 287.86245 509.44408 289.75165 510.43877 294.96875 512.84375 C 296.43355 513.51901 303.5483 515.875 304.125 515.875 C 304.5368 515.875 304.4843 515.75886 303.625 514.5625 C 301.499 511.60245 300.40785 508.58243 300.59375 506.28125 C 300.78665 503.894 302.054 502.32593 304.875 500.9375 C 306.9043 499.93871 308.9084 499.46803 311.125 499.46875 C 315.64 499.46975 319.5351 500.82398 324.75 504.21875 L 326.875 505.59375 L 327.625 504.6875 C 329.0527 502.95701 330.55035 501.65277 331.96875 500.9375 C 333.28355 500.27447 333.5646 500.2054 335.75 500.125 C 337.6649 500.0546 338.46125 500.14041 339.90625 500.5 C 344.68165 501.68919 349.3077 505.53937 354.5 512.65625 C 355.4476 513.95513 356.25 515.07361 356.25 515.15625 C 356.25 515.28896 357.13145 516.71508 357.21875 516.71875 C 357.23775 516.71959 358.17355 515.36782 359.28125 513.71875 C 360.38895 512.06969 361.4745 510.51389 361.6875 510.28125 C 361.9005 510.0486 362.44035 509.38783 362.90625 508.8125 C 364.76615 506.51583 367.62935 503.94106 369.84375 502.5625 C 372.90785 500.65506 375.37215 499.9752 378.78125 500.125 C 380.87965 500.2172 381.25295 500.29625 382.46875 500.90625 C 383.74365 501.54595 385.6665 503.23182 387 504.875 L 387.5625 505.59375 L 389.625 504.21875 C 397.4818 499.06775 404.5526 498.06152 410.25 501.28125 C 411.515 501.99615 412.71765 503.15304 413.28125 504.1875 C 413.93435 505.38623 413.89385 508.31748 413.21875 509.96875 C 412.48185 511.76994 411.51635 513.54054 410.59375 514.78125 L 409.75 515.9375 L 410.59375 515.78125 C 411.66085 515.58427 417.268 513.74402 418.5 513.1875 C 419.0241 512.95074 420.3161 512.37088 421.375 511.90625 C 422.4338 511.44163 423.63425 510.87715 424.03125 510.65625 C 424.42835 510.43536 425.33245 509.94674 426.03125 509.5625 C 437.78165 503.10193 444.50375 494.62337 445.15625 485.46875 C 445.44465 481.42252 444.8926 478.70153 443 474.625 C 442.4317 473.40089 440.7814 470.82787 439.625 469.40625 C 434.7266 463.38444 428.07605 458.9401 417.65625 454.6875 C 414.73075 453.49353 411.8867 452.5482 406.75 451.09375 C 405.1917 450.65251 401.50635 449.81742 398.78125 449.28125 C 397.89345 449.10658 396.98965 448.89193 396.78125 448.8125 C 396.57295 448.7331 396.8357 449.1001 397.375 449.59375 C 398.6803 450.78914 399.84115 452.52162 400.34375 454.09375 C 400.93335 455.9383 400.76825 458.50832 399.96875 460.1875 C 399.09395 462.02471 396.1749 464.84554 393.8125 466.125 C 386.6991 469.97745 379.2363 470.4129 372.9375 467.3125 C 371.4732 466.59173 371.372 466.4712 371.125 465.59375 C 370.6944 464.06384 369.38035 457.39774 368.53125 452.4375 C 368.02945 449.506 367.49155 446.53459 367.34375 445.84375 C 367.25675 445.43676 366.81565 445.88645 364.53125 448.78125 L 361.8125 452.21875 L 357.4375 452.28125 C 355.0206 452.31255 352.9057 452.27661 352.75 452.1875 C 352.4411 452.01062 351.57195 450.91872 348.90625 447.4375 L 347.15625 445.15625 z "
       inkscape:radius="1.4471629"
       sodipodi:type="inkscape:offset" />
  </g>
</svg>
