<?xml version="1.0" encoding="UTF-8" standalone="no"?>
<!-- Created with Inkscape (http://www.inkscape.org/) -->

<svg
   xmlns:dc="http://purl.org/dc/elements/1.1/"
   xmlns:cc="http://creativecommons.org/ns#"
   xmlns:rdf="http://www.w3.org/1999/02/22-rdf-syntax-ns#"
   xmlns:svg="http://www.w3.org/2000/svg"
   xmlns="http://www.w3.org/2000/svg"
   xmlns:xlink="http://www.w3.org/1999/xlink"
   xmlns:sodipodi="http://sodipodi.sourceforge.net/DTD/sodipodi-0.dtd"
   xmlns:inkscape="http://www.inkscape.org/namespaces/inkscape"
   width="185.28125"
   height="92.562347"
   id="svg3005"
   version="1.1"
   inkscape:version="0.48.4 r9939"
   sodipodi:docname="batman-outer.svg">
  <defs
     id="defs3007" />
  <sodipodi:namedview
     id="base"
     pagecolor="#ffffff"
     bordercolor="#666666"
     borderopacity="1.0"
     inkscape:pageopacity="0.0"
     inkscape:pageshadow="2"
     inkscape:zoom="5.5518671"
     inkscape:cx="83.56986"
     inkscape:cy="44.915829"
     inkscape:document-units="mm"
     inkscape:current-layer="layer1"
     showgrid="false"
     units="mm"
     fit-margin-top="0"
     fit-margin-left="0"
     fit-margin-right="0"
     fit-margin-bottom="0"
     inkscape:window-width="1551"
     inkscape:window-height="876"
     inkscape:window-x="1415"
     inkscape:window-y="24"
     inkscape:window-maximized="1" />
  <metadata
     id="metadata3010">
    <rdf:RDF>
      <cc:Work
         rdf:about="">
        <dc:format>image/svg+xml</dc:format>
        <dc:type
           rdf:resource="http://purl.org/dc/dcmitype/StillImage" />
        <dc:title />
      </cc:Work>
    </rdf:RDF>
  </metadata>
  <g
     inkscape:label="Layer 1"
     inkscape:groupmode="layer"
     id="layer1"
     transform="translate(-155.9577,-245.4709)">
    <path
       sodipodi:type="inkscape:offset"
       inkscape:radius="2.9263895"
       inkscape:original="M 357.15625 443.59375 C 307.71798 443.59375 267.625 461.88795 267.625 484.46875 C 267.625 507.04955 307.71798 525.34375 357.15625 525.34375 C 406.59452 525.34375 446.65625 507.04955 446.65625 484.46875 C 446.65625 461.88795 406.59452 443.59375 357.15625 443.59375 z "
       xlink:href="#path2990"
       style="fill:none;stroke:#000000;stroke-width:0.34548797999999997;stroke-miterlimit:4;stroke-opacity:1;stroke-dasharray:none"
       id="path2992-6"
       d="m 357.15625,440.65625 c -25.0801,0 -47.81666,4.62034 -64.53125,12.25 -8.35729,3.81483 -15.23254,8.37582 -20.125,13.65625 -4.89246,5.28043 -7.8125,11.39507 -7.8125,17.90625 0,6.51118 2.92004,12.62582 7.8125,17.90625 4.89246,5.28043 11.76771,9.84142 20.125,13.65625 16.71459,7.62966 39.45115,12.25 64.53125,12.25 25.0801,0 47.79298,-4.62012 64.5,-12.25 8.35351,-3.81494 15.23556,-8.37567 20.125,-13.65625 4.88944,-5.28058 7.8125,-11.39574 7.8125,-17.90625 0,-6.51051 -2.92306,-12.62567 -7.8125,-17.90625 -4.88944,-5.28058 -11.77149,-9.84131 -20.125,-13.65625 -16.70702,-7.62988 -39.4199,-12.25 -64.5,-12.25 z"
       inkscape:href="#path2990"
       transform="matrix(1,0,0,1.0518449,-108.5423,-217.83391)" />
  </g>
</svg>
